<?xml version="1.0" encoding="UTF-8"?>
<svg version="1.1" xmlns="http://www.w3.org/2000/svg" width="300" height="236">
<path d="M0 0 C99 0 198 0 300 0 C299.17558121 3.29767516 298.30392414 5.64933014 296.8125 8.640625 C296.13380859 10.001875 296.13380859 10.001875 295.44140625 11.390625 C294.96574219 12.33421875 294.49007813 13.2778125 294 14.25 C293.55527344 15.1471875 293.11054688 16.044375 292.65234375 16.96875 C291.68817172 18.89172264 290.68914809 20.79748905 289.66186523 22.6875 C288.38203647 25.23850877 287.41835542 27.57877663 286.48071289 30.25 C284.70564827 34.80074336 282.9146522 38.91779837 279 42 C271.22708008 44.75223882 262.53797136 43.82221445 254.4375 43.5 C252.16610725 43.46793328 249.8945998 43.4431201 247.62304688 43.42578125 C242.07794618 43.36771385 236.5409457 43.21922862 231 43 C230.5035498 43.96317139 230.5035498 43.96317139 229.99707031 44.94580078 C223.61416066 57.31406103 217.1577172 69.6301079 210.45214844 81.82666016 C206.88049772 88.34029106 203.41775311 94.90445304 200 101.5 C195.61781767 109.95629261 191.11253 118.33494788 186.52636719 126.68212891 C180.85443779 137.03573997 175.42179453 147.51379611 170 158 C165.86418285 156.62139428 165.43597714 154.67428421 163.3828125 150.875 C163.04377899 150.25407471 162.70474548 149.63314941 162.35543823 148.9934082 C161.2697213 147.000292 160.19718727 145.00042125 159.125 143 C158.41102902 141.68312019 157.69619429 140.36670828 156.98046875 139.05078125 C155.93558764 137.12960468 154.89340653 135.20728684 153.86114502 133.27929688 C151.61008593 129.0774306 149.24190483 124.96866193 146.71044922 120.9296875 C145.42995559 117.4516732 146.66625534 114.75134512 148.11645508 111.48657227 C148.57947021 110.60541748 149.04248535 109.7242627 149.51953125 108.81640625 C150.0410376 107.81786621 150.56254395 106.81932617 151.09985352 105.79052734 C151.66502686 104.72527832 152.2302002 103.6600293 152.8125 102.5625 C153.39636475 101.45084473 153.98022949 100.33918945 154.58178711 99.19384766 C158.81666226 91.15850215 163.1462254 83.17652025 167.52392578 75.21826172 C171.89248076 67.25839716 176.09431995 59.21564584 180.25610352 51.14599609 C180.97044556 49.76468506 180.97044556 49.76468506 181.69921875 48.35546875 C182.12033936 47.53715576 182.54145996 46.71884277 182.9753418 45.87573242 C184 44 184 44 185 43 C104.315 42.505 104.315 42.505 22 42 C0 1.66666667 0 1.66666667 0 0 Z " fill="#033865" transform="translate(0,0)"/>
<path d="M0 0 C26.4 0 52.8 0 80 0 C96.88280497 31.51456929 96.88280497 31.51456929 103.02304077 43.15496826 C108.70201829 53.91803203 114.41042349 64.66421582 120.1875 75.375 C120.73688232 76.39416504 121.28626465 77.41333008 121.85229492 78.46337891 C124.25044112 82.90990507 126.65057376 87.35534187 129.05615234 91.79785156 C130.82397888 95.06298054 132.58768203 98.33030982 134.34902954 101.59893799 C135.0284537 102.8578704 135.70940313 104.11598094 136.39193726 105.37322998 C137.33539075 107.11135321 138.27330235 108.85248116 139.2109375 110.59375 C140.01990479 112.08938477 140.01990479 112.08938477 140.84521484 113.61523438 C142 116 142 116 142 118 C145.58020448 117.14664817 147.52215627 116.63405935 149.77587891 113.64355469 C150.25460449 112.66290039 150.73333008 111.68224609 151.2265625 110.671875 C151.77707275 109.57343262 152.32758301 108.47499023 152.89477539 107.34326172 C153.46574951 106.15748535 154.03672363 104.97170898 154.625 103.75 C155.5478793 101.89141636 156.47786713 100.03649375 157.40791321 98.18148804 C158.03598143 96.92714645 158.66169412 95.67162273 159.28507996 94.41494751 C162.06487426 88.81799521 165.03234425 83.33921528 168.0625 77.875 C172.3237342 70.14096628 176.44749094 62.34534979 180.5 54.5 C185.1086871 45.57934008 189.83079511 36.73197654 194.66723633 27.93286133 C198.52313262 20.90881443 202.27407966 13.83389803 205.9675293 6.72314453 C208.89808126 1.10191874 208.89808126 1.10191874 210 0 C212.3756852 -0.0883967 214.72208674 -0.11530305 217.09765625 -0.09765625 C218.16094398 -0.09553383 218.16094398 -0.09553383 219.24571228 -0.09336853 C221.51801712 -0.08775443 223.79022475 -0.07519963 226.0625 -0.0625 C227.59960796 -0.05748681 229.13671745 -0.05292359 230.67382812 -0.04882812 C234.44925642 -0.03778042 238.22461171 -0.02050641 242 0 C241.29185818 3.90288851 239.4667879 7.16486491 237.60546875 10.6171875 C237.26213501 11.26205612 236.91880127 11.90692474 236.56506348 12.57133484 C235.44353228 14.67489806 234.31562874 16.77496874 233.1875 18.875 C232.40766672 20.3343979 231.62812773 21.7939531 230.84887695 23.25366211 C226.03520743 32.25924722 221.16297881 41.23197402 216.2487793 50.18310547 C212.22497562 57.53283975 208.3541034 64.95756434 204.4987793 72.39672852 C200.60085465 79.89859847 196.57038122 87.32110293 192.5 94.73046875 C188.91393559 101.27690404 185.43431892 107.87283771 182 114.5 C177.61539008 122.96092695 173.10995792 131.34553106 168.51757812 139.6953125 C164.21905725 147.53545307 160.08300434 155.45570357 156.0078125 163.4140625 C151.05691056 173.01498284 151.05691056 173.01498284 148 177 C145.0625 177.875 145.0625 177.875 142 177 C137.5506222 171.56711373 134.62277001 164.59247334 131.4375 158.375 C127.50276504 150.76303891 123.50510612 143.19522914 119.375 135.6875 C114.21801234 126.29922641 109.18988266 116.84618308 104.1875 107.375 C98.81090866 97.19833912 93.43090655 87.0238131 87.99942017 76.87631226 C87.07402233 75.14653779 86.15064566 73.41568252 85.22729492 71.68481445 C82.40906323 66.41859314 79.55377277 61.18189471 76.58984375 55.99609375 C76.06575928 55.07231934 75.5416748 54.14854492 75.00170898 53.19677734 C74.03350314 51.49836391 73.05338174 49.8066612 72.05883789 48.12353516 C68.96323313 42.68478297 68.96323313 42.68478297 69.15625 39.08984375 C70 37 70 37 71 35 C71.14851844 33.06640414 71.22130833 31.12657903 71.25 29.1875 C71.27578125 28.14980469 71.3015625 27.11210938 71.328125 26.04296875 C70.95508335 22.58345153 70.05728435 20.77879639 68 18 C63.18599379 14.67604333 58.66482615 14.2677424 53 15 C49.18255152 16.29649194 47.36047558 17.61106582 44.625 20.5625 C42.43801989 25.18880409 42.22029192 28.96883103 43 34 C44.94113694 38.47305469 46.77112609 39.94466272 51.109375 41.671875 C58.41069091 45.646734 61.29021593 53.78753992 64.8125 60.9375 C65.60030226 62.48877299 66.39085446 64.03865237 67.18408203 65.5871582 C68.75333871 68.6542266 70.3119787 71.72630356 71.86279297 74.80273438 C74.57801547 80.16540048 77.45902636 85.43185739 80.375 90.6875 C84.87243315 98.8624857 89.20840865 107.11336349 93.50146484 115.3972168 C96.92036392 121.97712145 100.42992108 128.50101345 104 135 C111.60881933 148.85677275 118.93036201 162.86072402 126 177 C115.11 177 104.22 177 93 177 C90.6075 172.33875 88.215 167.6775 85.75 162.875 C80.41625857 152.51403533 74.99757932 142.21452942 69.37011719 132.00927734 C65.64020783 125.22659228 62.0521062 118.37728104 58.5 111.5 C53.93159226 102.65643149 49.24460082 93.89027787 44.44921875 85.16796875 C40.87852103 78.65614369 37.4168135 72.09373371 34 65.5 C29.61510262 57.03846817 25.10739121 48.65440802 20.51757812 40.30249023 C16.23403042 32.48473423 12.09897386 24.5937596 8.0078125 16.67382812 C5.96306312 12.72271711 3.91093286 8.8007713 1.65625 4.96484375 C0 2 0 2 0 0 Z " fill="#023663" transform="translate(27,59)"/>
<path d="M0 0 C26.4 0 52.8 0 80 0 C79.67 0.66 79.34 1.32 79 2 C54.25 2 29.5 2 4 2 C4 6.63576619 6.8823935 9.48535254 9.46875 13.2109375 C11.08302144 16.15121763 11.33493175 17.71049175 11 21 C8.0718145 17.39750049 5.97587472 13.4592011 3.8125 9.375 C3.44447266 8.694375 3.07644531 8.01375 2.69726562 7.3125 C0 2.24824617 0 2.24824617 0 0 Z " fill="#163A55" transform="translate(27,59)"/>
<path d="M0 0 C1.47118538 0.0001133 1.47118538 0.0001133 2.97209167 0.00022888 C4.028423 0.00539017 5.08475433 0.01055145 6.1730957 0.01586914 C7.79813774 0.01799156 7.79813774 0.01799156 9.45600891 0.02015686 C12.9203262 0.0257598 16.38457915 0.03831281 19.84887695 0.05102539 C22.19588123 0.05604001 24.54288652 0.06060298 26.88989258 0.06469727 C32.64707603 0.07573018 38.4042219 0.09247119 44.16137695 0.11352539 C44.16137695 0.44352539 44.16137695 0.77352539 44.16137695 1.11352539 C28.32137695 1.44352539 12.48137695 1.77352539 -3.83862305 2.11352539 C-5.15862305 4.75352539 -6.47862305 7.39352539 -7.83862305 10.11352539 C-8.16862305 10.11352539 -8.49862305 10.11352539 -8.83862305 10.11352539 C-8.96362305 3.36352539 -8.96362305 3.36352539 -7.83862305 1.11352539 C-4.90944012 0.13713108 -3.04836566 -0.00783642 0 0 Z " fill="#0D3555" transform="translate(234.838623046875,40.886474609375)"/>
<path d="M0 0 C5.90815343 -0.09890033 11.81582472 -0.17148371 17.72460938 -0.21972656 C19.73446038 -0.23983805 21.74425291 -0.26713115 23.75390625 -0.30175781 C26.64337596 -0.35029634 29.53207191 -0.37297322 32.421875 -0.390625 C33.31992859 -0.41127014 34.21798218 -0.43191528 35.14324951 -0.45318604 C41.36973225 -0.45542401 41.36973225 -0.45542401 44.52050781 1.82128906 C46.29622176 4.43621831 47.17120415 6.96108187 48 10 C46.0625 8.8125 46.0625 8.8125 44 7 C43.505 4.525 43.505 4.525 43 2 C28.81 1.67 14.62 1.34 0 1 C0 0.67 0 0.34 0 0 Z " fill="#04345C" transform="translate(64,60)"/>
<path d="M0 0 C0.33 0.66 0.66 1.32 1 2 C-0.17163086 4.70556641 -0.17163086 4.70556641 -1.96484375 8.1015625 C-2.27700333 8.69802582 -2.5891629 9.29448914 -2.91078186 9.9090271 C-3.91224257 11.81837656 -4.92469588 13.72164741 -5.9375 15.625 C-6.617267 16.91628235 -7.29631301 18.20794453 -7.97460938 19.5 C-9.64138745 22.67112108 -11.3180745 25.83688172 -13 29 C-13.33 29 -13.66 29 -14 29 C-14.20375803 25.3323555 -13.80451285 23.18443445 -12 20 C-11.67 19.01 -11.34 18.02 -11 17 C-10.34 17 -9.68 17 -9 17 C-9 16.34 -9 15.68 -9 15 C-8.34 15 -7.68 15 -7 15 C-6.89816406 14.28457031 -6.79632813 13.56914062 -6.69140625 12.83203125 C-5.91567222 9.65458961 -4.67015917 7.45238165 -2.9375 4.6875 C-2.38964844 3.80449219 -1.84179688 2.92148438 -1.27734375 2.01171875 C-0.85582031 1.34785156 -0.43429687 0.68398437 0 0 Z " fill="#103352" transform="translate(294,10)"/>
<path d="M0 0 C3 2 3 2 3.9375 4 C5.25570764 6.48133202 6.52972322 6.80470478 9 8 C10 11 10 11 9.9375 13.3125 C10.01181071 16.50786044 10.89100764 19.01958302 12 22 C9.69407737 19.87225288 8.20174065 17.82790923 6.73828125 15.05859375 C6.34189453 14.31029297 5.94550781 13.56199219 5.53710938 12.79101562 C5.13298828 12.01435547 4.72886719 11.23769531 4.3125 10.4375 C3.89677734 9.65697266 3.48105469 8.87644531 3.05273438 8.07226562 C0 2.26254618 0 2.26254618 0 0 Z " fill="#0C3556" transform="translate(156,211)"/>
<path d="M0 0 C0.99 0 1.98 0 3 0 C3.88255224 1.76510447 4.76452147 3.53050158 5.64453125 5.296875 C6.69657669 7.39490222 7.75750648 9.4875668 8.82421875 11.578125 C9.46616265 12.84374147 10.10808966 14.10936651 10.75 15.375 C11.06783447 15.99391113 11.38566895 16.61282227 11.71313477 17.25048828 C14 21.77438241 14 21.77438241 14 24 C14.66 24 15.32 24 16 24 C16 25.65 16 27.3 16 29 C13.6495994 26.03395618 11.85373397 23.00801165 10.1171875 19.6484375 C9.58996094 18.63265625 9.06273438 17.616875 8.51953125 16.5703125 C7.97683594 15.51585937 7.43414062 14.46140625 6.875 13.375 C6.32457031 12.3128125 5.77414063 11.250625 5.20703125 10.15625 C1.45954241 2.91908482 1.45954241 2.91908482 0 0 Z " fill="#0E3554" transform="translate(70,141)"/>
<path d="M0 0 C3.35594194 1.2632842 5.63290296 2.25915079 8 5 C7.67 5.33 7.34 5.66 7 6 C7.33 6.9075 7.66 7.815 8 8.75 C9 12 9 12 9 16 C6.40962402 12.79509037 4.62056844 9.44649547 2.8125 5.75 C2.01779297 4.13351563 2.01779297 4.13351563 1.20703125 2.484375 C0.80871094 1.66453125 0.41039063 0.8446875 0 0 Z " fill="#063459" transform="translate(94,186)"/>
<path d="M0 0 C0.66 0 1.32 0 2 0 C5.94543797 4.04166816 7.30616757 6.33370181 8 12 C8.88673266 14.39853916 9.93000278 16.67391909 11 19 C10.34 19 9.68 19 9 19 C7.4933028 16.2118978 5.99580196 13.41896042 4.5 10.625 C4.07074219 9.8309375 3.64148438 9.036875 3.19921875 8.21875 C2.79316406 7.45820313 2.38710937 6.69765625 1.96875 5.9140625 C1.40317383 4.8614624 1.40317383 4.8614624 0.82617188 3.78759766 C0 2 0 2 0 0 Z " fill="#0C3452" transform="translate(110,215)"/>
<path d="M0 0 C0.66 0 1.32 0 2 0 C2.33 0.66 2.66 1.32 3 2 C5.52733235 2.65555119 5.52733235 2.65555119 8 3 C7.649375 3.5775 7.29875 4.155 6.9375 4.75 C5.85082593 7.35801776 6.06934867 8.39417629 7 11 C7.66 11 8.32 11 9 11 C9.33 13.31 9.66 15.62 10 18 C7.16811225 14.5494537 5.25496982 10.74037641 3.3125 6.75 C2.99216797 6.1003125 2.67183594 5.450625 2.34179688 4.78125 C1.55752859 3.18930243 0.77825745 1.59489471 0 0 Z " fill="#0E3556" transform="translate(12,23)"/>
<path d="M0 0 C0.66 0.33 1.32 0.66 2 1 C-0.64 5.95 -3.28 10.9 -6 16 C-6.33 14.68 -6.66 13.36 -7 12 C-6.34 12 -5.68 12 -5 12 C-5.33 10.02 -5.66 8.04 -6 6 C-5.38125 5.938125 -4.7625 5.87625 -4.125 5.8125 C-1.72238859 5.171081 -1.72238859 5.171081 -0.75 2.4375 C-0.5025 1.633125 -0.255 0.82875 0 0 Z " fill="#0E3659" transform="translate(183,217)"/>
<path d="M0 0 C0.66 0.33 1.32 0.66 2 1 C-0.64 5.95 -3.28 10.9 -6 16 C-6.33 16 -6.66 16 -7 16 C-7.125 10.25 -7.125 10.25 -6 8 C-5.34 8 -4.68 8 -4 8 C-3.71125 7.236875 -3.4225 6.47375 -3.125 5.6875 C-2 3 -2 3 0 0 Z " fill="#0C3454" transform="translate(209,80)"/>
<path d="M0 0 C-1.22527029 4.05281712 -2.69880494 7.44360764 -5 11 C-6.39935013 8.20129973 -6.25265405 6.09501208 -6 3 C-4.04062003 0.20088576 -3.50082948 0 0 0 Z " fill="#0A3559" transform="translate(192,203)"/>
<path d="M0 0 C1.2065625 0.0309375 1.2065625 0.0309375 2.4375 0.0625 C2.4375 1.3825 2.4375 2.7025 2.4375 4.0625 C1.7775 4.0625 1.1175 4.0625 0.4375 4.0625 C1.0975 5.7125 1.7575 7.3625 2.4375 9.0625 C1.4475 9.5575 1.4475 9.5575 0.4375 10.0625 C-0.8825 7.0925 -2.2025 4.1225 -3.5625 1.0625 C-2.5625 0.0625 -2.5625 0.0625 0 0 Z " fill="#09345A" transform="translate(91.5625,172.9375)"/>
<path d="M0 0 C3.40458262 3.89095157 6.24177968 8.11365765 8 13 C7.67 13.66 7.34 14.32 7 15 C1.64466943 10.77210744 0.8622489 6.62773407 0 0 Z " fill="#0A3153" transform="translate(122,89)"/>
<path d="M0 0 C0.33 0.66 0.66 1.32 1 2 C-0.24282012 4.45038293 -1.52882339 6.773325 -2.9375 9.125 C-3.32357422 9.78371094 -3.70964844 10.44242188 -4.10742188 11.12109375 C-5.06446578 12.751613 -6.03132815 14.37636184 -7 16 C-7.5859375 14.16015625 -7.5859375 14.16015625 -8 12 C-6.625 9.4375 -6.625 9.4375 -5 7 C-4.67 6.01 -4.34 5.02 -4 4 C-2.70644173 2.62804426 -1.37701298 1.28817344 0 0 Z " fill="#0C3451" transform="translate(257,80)"/>
<path d="M0 0 C2.31 0 4.62 0 7 0 C6.01 0.66 5.02 1.32 4 2 C0.7876479 4.40926407 -1.74065668 6.67044142 -4 10 C-4.125 5.25 -4.125 5.25 -3 3 C-2.01 3 -1.02 3 0 3 C0 2.01 0 1.02 0 0 Z " fill="#0B3151" transform="translate(73,73)"/>
<path d="M0 0 C6.09781001 -0.22084624 11.21642935 -0.01167675 17 2 C16.67 3.32 16.34 4.64 16 6 C14.5459375 5.0409375 14.5459375 5.0409375 13.0625 4.0625 C8.8446362 1.61648472 4.80480758 1.21790511 0 1 C0 0.67 0 0.34 0 0 Z " fill="#0D304E" transform="translate(80,72)"/>
<path d="M0 0 C7.28971963 -0.48598131 7.28971963 -0.48598131 10.375 1.625 C12.22329605 4.32635577 13.14155616 6.85237259 14 10 C11.21611025 8.29374499 10.14615794 7.52373261 9.25 4.3125 C9.12625 3.1678125 9.12625 3.1678125 9 2 C6.03 1.67 3.06 1.34 0 1 C0 0.67 0 0.34 0 0 Z " fill="#0C3155" transform="translate(98,60)"/>
<path d="M0 0 C0.66 0.66 1.32 1.32 2 2 C1.01 3.98 0.02 5.96 -1 8 C-1.66 8 -2.32 8 -3 8 C-3.33 9.65 -3.66 11.3 -4 13 C-4.66 13 -5.32 13 -6 13 C-4.58707905 8.1725201 -2.57025846 4.2837641 0 0 Z " fill="#0C2F4E" transform="translate(226,79)"/>
<path d="M0 0 C3.09592835 3.5087188 4.74194623 6.49197399 6 11 C5.01 10.67 4.02 10.34 3 10 C2.29788106 8.34795544 1.63028587 6.68076231 1 5 C0.34 4.67 -0.32 4.34 -1 4 C-0.67 2.68 -0.34 1.36 0 0 Z " fill="#083258" transform="translate(161,162)"/>
<path d="M0 0 C2.94995547 3.45856848 5.22675738 6.80021485 7 11 C6.67 11.66 6.34 12.32 6 13 C1.92055228 9.4768406 0.88624396 5.16975646 0 0 Z " fill="#0E3454" transform="translate(130,104)"/>
<path d="M0 0 C0.97591583 3.38317487 0.85856655 5.5657338 0 9 C-0.99 8.67 -1.98 8.34 -3 8 C-3.33 8.99 -3.66 9.98 -4 11 C-4.33 10.34 -4.66 9.68 -5 9 C-4.00390625 6.8359375 -4.00390625 6.8359375 -2.5625 4.375 C-2.08941406 3.55773438 -1.61632812 2.74046875 -1.12890625 1.8984375 C-0.75636719 1.27195313 -0.38382813 0.64546875 0 0 Z " fill="#0D3355" transform="translate(179,54)"/>
<path d="M0 0 C0.66 0.33 1.32 0.66 2 1 C1.42865502 4.3138009 0.50248134 5.78626651 -2 8 C-2.556875 8.556875 -3.11375 9.11375 -3.6875 9.6875 C-4.120625 10.120625 -4.55375 10.55375 -5 11 C-3.77472971 6.94718288 -2.30119506 3.55639236 0 0 Z " fill="#0E3358" transform="translate(185,43)"/>
<path d="M0 0 C0.75 1.5625 0.75 1.5625 1 4 C-0.13084437 6.50286409 -1.52139516 8.67007722 -3 11 C-3.66 11 -4.32 11 -5 11 C-3.55049545 7.2089881 -1.84827434 3.6125362 0 0 Z " fill="#0F3453" transform="translate(165,80)"/>
<path d="M0 0 C1 3 1 3 0.00390625 5.26171875 C-0.47175781 6.06222656 -0.94742188 6.86273438 -1.4375 7.6875 C-1.91058594 8.49574219 -2.38367188 9.30398437 -2.87109375 10.13671875 C-3.24363281 10.75160156 -3.61617187 11.36648437 -4 12 C-5.1640625 8.3203125 -5.1640625 8.3203125 -3.6875 5.4375 C-3.130625 4.633125 -2.57375 3.82875 -2 3 C-1.34 2.01 -0.68 1.02 0 0 Z " fill="#0E314F" transform="translate(224,52)"/>
<path d="M0 0 C4.42857143 5.14285714 4.42857143 5.14285714 5 9 C3.68 8.67 2.36 8.34 1 8 C0.67 5.36 0.34 2.72 0 0 Z " fill="#093059" transform="translate(131,196)"/>
<path d="M0 0 C0.66 0 1.32 0 2 0 C3.32421875 1.64453125 3.32421875 1.64453125 4.6875 3.8125 C5.14511719 4.52019531 5.60273437 5.22789062 6.07421875 5.95703125 C7 8 7 8 6 11 C3.13546142 7.58983503 1.65296434 4.09305456 0 0 Z " fill="#133657" transform="translate(97,191)"/>
<path d="M0 0 C1 3 1 3 0.22265625 4.82421875 C-0.8515625 6.54947917 -1.92578125 8.27473958 -3 10 C-3.33 10 -3.66 10 -4 10 C-4.41176754 6.39703406 -4.1535853 5.21597933 -2 2.1875 C-1.34 1.465625 -0.68 0.74375 0 0 Z " fill="#153D5A" transform="translate(299,0)"/>
<path d="M0 0 C0.66 0 1.32 0 2 0 C0.7508258 3.45925163 -0.67527795 6.14693203 -3 9 C-2.5020163 5.26512223 -2.12508244 3.18762365 0 0 Z " fill="#0D3356" transform="translate(235,119)"/>
</svg>
